<svg xmlns="http://www.w3.org/2000/svg" xmlns:xlink="http://www.w3.org/1999/xlink" width="1080" zoomAndPan="magnify" viewBox="0 0 810 1012.49997" height="1350" preserveAspectRatio="xMidYMid meet" version="1.0"><defs><clipPath id="4623170a57"><path d="M 3 223 L 809.800781 223 L 809.800781 995.246094 L 3 995.246094 Z M 3 223 " clip-rule="nonzero"/></clipPath><clipPath id="96cd4d58be"><path d="M 203 24.472656 L 611 24.472656 L 611 387 L 203 387 Z M 203 24.472656 " clip-rule="nonzero"/></clipPath></defs><g clip-path="url(#4623170a57)"><path fill="#000000" d="M 750.058594 995.246094 L 64.003906 995.246094 C 47.34375 995.246094 31.175781 988.296875 19.757812 976.195312 C 8.300781 964.089844 2.246094 947.597656 3.179688 930.945312 L 39.300781 281.058594 C 41.089844 248.765625 67.78125 223.5 100.121094 223.5 L 713.941406 223.5 C 746.28125 223.5 772.976562 248.765625 774.761719 281.058594 L 810.882812 930.945312 C 811.816406 947.597656 805.761719 964.089844 794.304688 976.195312 C 782.847656 988.296875 766.71875 995.246094 750.058594 995.246094 Z M 100.121094 264.121094 C 89.355469 264.121094 80.417969 272.570312 79.847656 283.292969 L 43.730469 933.179688 C 43.445312 938.824219 45.394531 944.1875 49.253906 948.289062 C 53.15625 952.351562 58.355469 954.625 64.003906 954.625 L 750.058594 954.625 C 755.707031 954.625 760.949219 952.351562 764.808594 948.289062 C 768.667969 944.1875 770.660156 938.824219 770.335938 933.179688 L 734.214844 283.292969 C 733.644531 272.570312 724.707031 264.121094 713.941406 264.121094 Z M 100.121094 264.121094 " fill-opacity="1" fill-rule="nonzero"/></g><g clip-path="url(#96cd4d58be)"><path fill="#000000" d="M 589.859375 386.949219 C 578.648438 386.949219 569.546875 377.851562 569.546875 366.640625 L 569.546875 227.238281 C 569.546875 137.636719 496.660156 64.765625 407.03125 64.765625 C 317.402344 64.765625 244.515625 137.636719 244.515625 227.238281 L 244.515625 366.640625 C 244.515625 377.851562 235.414062 386.949219 224.203125 386.949219 C 212.988281 386.949219 203.886719 377.851562 203.886719 366.640625 L 203.886719 227.238281 C 203.886719 115.253906 295.019531 24.148438 407.03125 24.148438 C 519.046875 24.148438 610.175781 115.253906 610.175781 227.238281 L 610.175781 366.640625 C 610.175781 377.851562 601.074219 386.949219 589.859375 386.949219 Z M 589.859375 386.949219 " fill-opacity="1" fill-rule="nonzero"/></g></svg>